<svg xmlns="http://www.w3.org/2000/svg" style="display: none;">
    <symbol id="play">
        <path d="M295.84,146.049l-256-144c-4.96-2.784-11.008-2.72-15.904,0.128C19.008,5.057,16,10.305,16,16.001v288
        c0,5.696,3.008,10.944,7.936,13.824c2.496,1.44,5.28,2.176,8.064,2.176c2.688,0,5.408-0.672,7.84-2.048l256-144
        c5.024-2.848,8.16-8.16,8.16-13.952S300.864,148.897,295.84,146.049z"/>
        <g>
        </g>
        <g>
        </g>
        <g>
        </g>
        <g>
        </g>
        <g>
        </g>
        <g>
        </g>
        <g>
        </g>
        <g>
        </g>
        <g>
        </g>
        <g>
        </g>
        <g>
        </g>
        <g>
        </g>
        <g>
        </g>
        <g>
        </g>
        <g>
        </g>
    </symbol>
    <symbol id="sound">
        <g>
        <path d="M46.547,75.521c0,1.639-0.947,3.128-2.429,3.823c-0.573,0.271-1.187,0.402-1.797,0.402c-0.966,0-1.923-0.332-2.696-0.973
            l-23.098-19.14H4.225C1.892,59.635,0,57.742,0,55.409V38.576c0-2.334,1.892-4.226,4.225-4.226h12.303l23.098-19.14
            c1.262-1.046,3.012-1.269,4.493-0.569c1.481,0.695,2.429,2.185,2.429,3.823L46.547,75.521L46.547,75.521z M62.784,68.919
            c-0.103,0.007-0.202,0.011-0.304,0.011c-1.116,0-2.192-0.441-2.987-1.237l-0.565-0.567c-1.482-1.479-1.656-3.822-0.408-5.504
            c3.164-4.266,4.834-9.323,4.834-14.628c0-5.706-1.896-11.058-5.484-15.478c-1.366-1.68-1.24-4.12,0.291-5.65l0.564-0.565
            c0.844-0.844,1.975-1.304,3.199-1.231c1.192,0.06,2.305,0.621,3.061,1.545c4.977,6.09,7.606,13.484,7.606,21.38
            c0,7.354-2.325,14.354-6.725,20.24C65.131,68.216,64.007,68.832,62.784,68.919z M80.252,81.976
            c-0.764,0.903-1.869,1.445-3.052,1.495c-0.058,0.002-0.117,0.004-0.177,0.004c-1.119,0-2.193-0.442-2.988-1.237l-0.555-0.555
            c-1.551-1.55-1.656-4.029-0.246-5.707c6.814-8.104,10.568-18.396,10.568-28.982c0-11.011-4.019-21.611-11.314-29.847
            c-1.479-1.672-1.404-4.203,0.17-5.783l0.554-0.555c0.822-0.826,1.89-1.281,3.115-1.242c1.163,0.033,2.263,0.547,3.036,1.417
            c8.818,9.928,13.675,22.718,13.675,36.01C93.04,59.783,88.499,72.207,80.252,81.976z"/>
        </g>
        <g>
        </g>
        <g>
        </g>
        <g>
        </g>
        <g>
        </g>
        <g>
        </g>
        <g>
        </g>
        <g>
        </g>
        <g>
        </g>
        <g>
        </g>
        <g>
        </g>
        <g>
        </g>
        <g>
        </g>
        <g>
        </g>
        <g>
        </g>
        <g>
        </g>
    </symbol>
    <symbol id="fullscreen">
        <g>
        <g>
            <g>
                <path d="M160,0H10.667C4.771,0,0,4.771,0,10.667V160c0,5.896,4.771,10.667,10.667,10.667H32c5.896,0,10.667-4.771,10.667-10.667
                    V42.667H160c5.896,0,10.667-4.771,10.667-10.667V10.667C170.667,4.771,165.896,0,160,0z"/>
                <path d="M458.667,0H309.333c-5.896,0-10.667,4.771-10.667,10.667V32c0,5.896,4.771,10.667,10.667,10.667h117.333V160
                    c0,5.896,4.771,10.667,10.667,10.667h21.333c5.896,0,10.667-4.771,10.667-10.667V10.667C469.333,4.771,464.563,0,458.667,0z"/>
                <path d="M458.667,298.667h-21.333c-5.896,0-10.667,4.771-10.667,10.667v117.333H309.333c-5.896,0-10.667,4.771-10.667,10.667
                    v21.333c0,5.896,4.771,10.667,10.667,10.667h149.333c5.896,0,10.667-4.771,10.667-10.667V309.333
                    C469.333,303.437,464.563,298.667,458.667,298.667z"/>
                <path d="M160,426.667H42.667V309.333c0-5.896-4.771-10.667-10.667-10.667H10.667C4.771,298.667,0,303.437,0,309.333v149.333
                    c0,5.896,4.771,10.667,10.667,10.667H160c5.896,0,10.667-4.771,10.667-10.667v-21.333
                    C170.667,431.438,165.896,426.667,160,426.667z"/>
            </g>
        </g>
        </g>
        <g>
        </g>
        <g>
        </g>
        <g>
        </g>
        <g>
        </g>
        <g>
        </g>
        <g>
        </g>
        <g>
        </g>
        <g>
        </g>
        <g>
        </g>
        <g>
        </g>
        <g>
        </g>
        <g>
        </g>
        <g>
        </g>
        <g>
        </g>
        <g>
        </g>
    </symbol>
    <symbol id="pause">
        <path d="m158 0h71c4.417969 0 8 3.582031 8 8v311c0 4.417969-3.582031 8-8 8h-71c-4.417969 0-8-3.582031-8-8v-311c0-4.417969 3.582031-8 8-8zm0 0"/>
        <path d="m8 0h71c4.417969 0 8 3.582031 8 8v311c0 4.417969-3.582031 8-8 8h-71c-4.417969 0-8-3.582031-8-8v-311c0-4.417969 3.582031-8 8-8zm0 0"/>
    </symbol>
    <symbol id="subtitle">
        <g>
        <g>
            <path d="M0,86v340h512V86H0z M482,396H30V116h452V396z"/>
        </g>
        </g>
        <g>
            <g>
                <rect x="70" y="266" width="252" height="30"/>
            </g>
        </g>
        <g>
            <g>
                <rect x="352" y="266" width="90" height="30"/>
            </g>
        </g>
        <g>
            <g>
                <rect x="190" y="326" width="252" height="30"/>
            </g>
        </g>
        <g>
            <g>
                <rect x="70" y="326" width="90" height="30"/>
            </g>
        </g>
        <g>
        </g>
        <g>
        </g>
        <g>
        </g>
        <g>
        </g>
        <g>
        </g>
        <g>
        </g>
        <g>
        </g>
        <g>
        </g>
        <g>
        </g>
        <g>
        </g>
        <g>
        </g>
        <g>
        </g>
        <g>
        </g>
        <g>
        </g>
        <g>
        </g>
    </symbol>
    <symbol id="checked">
        <g>
        <g>
            <path d="M421.876,56.307c-6.548-6.78-17.352-6.968-24.132-0.42c-0.142,0.137-0.282,0.277-0.42,0.42L119.257,334.375
                l-90.334-90.334c-6.78-6.548-17.584-6.36-24.132,0.42c-6.388,6.614-6.388,17.099,0,23.713l102.4,102.4
                c6.665,6.663,17.468,6.663,24.132,0L421.456,80.44C428.236,73.891,428.424,63.087,421.876,56.307z"/>
        </g>
        </g>
        <g>
        </g>
        <g>
        </g>
        <g>
        </g>
        <g>
        </g>
        <g>
        </g>
        <g>
        </g>
        <g>
        </g>
        <g>
        </g>
        <g>
        </g>
        <g>
        </g>
        <g>
        </g>
        <g>
        </g>
        <g>
        </g>
        <g>
        </g>
        <g>
        </g>
    </symbol>
    <symbol id="muted">
        <path d="M352.021,16.075c0-6.08-3.52-11.84-8.96-14.4c-5.76-2.88-12.16-1.92-16.96,1.92l-141.76,112.96l167.68,167.68V16.075z"/>
        <path d="M443.349,420.747l-416-416c-6.24-6.24-16.384-6.24-22.624,0s-6.24,16.384,0,22.624l100.672,100.704h-9.376
            c-9.92,0-18.56,4.48-24.32,11.52c-4.8,5.44-7.68,12.8-7.68,20.48v128c0,17.6,14.4,32,32,32h74.24l155.84,124.48
            c2.88,2.24,6.4,3.52,9.92,3.52c2.24,0,4.8-0.64,7.04-1.6c5.44-2.56,8.96-8.32,8.96-14.4v-57.376l68.672,68.672
            c3.136,3.136,7.232,4.704,11.328,4.704s8.192-1.568,11.328-4.672C449.589,437.131,449.589,427.019,443.349,420.747z"/>
        <g>
        </g>
        <g>
        </g>
        <g>
        </g>
        <g>
        </g>
        <g>
        </g>
        <g>
        </g>
        <g>
        </g>
        <g>
        </g>
        <g>
        </g>
        <g>
        </g>
        <g>
        </g>
        <g>
        </g>
        <g>
        </g>
        <g>
        </g>
        <g>
        </g>
    </symbol>
</svg>